<svg width="22" height="26" viewBox="0 0 22 26" fill="none" xmlns="http://www.w3.org/2000/svg">
<g filter="url(#filter0_i_1_2728)">
<path fill-rule="evenodd" clip-rule="evenodd" d="M21 22.2308V1L3.85714 1L1 3.76923L1 25H18.1429L21 22.2308ZM18.1429 22.2308V3.76923L3.85714 3.76923L3.85714 22.2308H18.1429Z" fill="#E5E5ED"/>
<path d="M13.5668 17.2592C13.5668 18.641 12.4176 19.7613 11 19.7613C9.58237 19.7613 8.43316 18.641 8.43316 17.2592C8.43316 15.8773 9.58237 14.7571 11 14.7571C12.4176 14.7571 13.5668 15.8773 13.5668 17.2592Z" fill="#E5E5ED"/>
</g>
<path d="M21.174 22.4103L21.25 22.3366V22.2308V1V0.75L21 0.75L3.85714 0.75H3.75587L3.68315 0.820483L0.826007 3.58971L0.75 3.66338V3.76923L0.75 25V25.25H1H18.1429H18.2441L18.3169 25.1795L21.174 22.4103ZM4.10714 4.01923L17.8929 4.01923V21.9808H4.10714L4.10714 4.01923ZM11 20.0113C12.5496 20.0113 13.8168 18.7851 13.8168 17.2592C13.8168 15.7333 12.5496 14.5071 11 14.5071C9.45036 14.5071 8.18316 15.7333 8.18316 17.2592C8.18316 18.7851 9.45036 20.0113 11 20.0113Z" stroke="white" stroke-width="0.5"/>
<defs>
<filter id="filter0_i_1_2728" x="0.5" y="0.5" width="21" height="27" filterUnits="userSpaceOnUse" color-interpolation-filters="sRGB">
<feFlood flood-opacity="0" result="BackgroundImageFix"/>
<feBlend mode="normal" in="SourceGraphic" in2="BackgroundImageFix" result="shape"/>
<feColorMatrix in="SourceAlpha" type="matrix" values="0 0 0 0 0 0 0 0 0 0 0 0 0 0 0 0 0 0 127 0" result="hardAlpha"/>
<feOffset dy="2"/>
<feGaussianBlur stdDeviation="2"/>
<feComposite in2="hardAlpha" operator="arithmetic" k2="-1" k3="1"/>
<feColorMatrix type="matrix" values="0 0 0 0 0 0 0 0 0 0 0 0 0 0 0 0 0 0 0.04 0"/>
<feBlend mode="normal" in2="shape" result="effect1_innerShadow_1_2728"/>
</filter>
</defs>
</svg>
