<svg width="32" height="32" viewBox="0 0 32 32" fill="none" xmlns="http://www.w3.org/2000/svg">
<g filter="url(#filter0_i_1_2723)">
<path d="M27.9978 11.5714H24.9981H21.9983H15.9989H3.99994V15H27.9978V13.2857V11.5714Z" fill="#E5E5ED"/>
<path d="M14.2847 3L8.28527 11.5714H3.99994L9.99941 3H14.2847Z" fill="#E5E5ED"/>
</g>
<path d="M27.9978 11.3214H28.2478V11.5714V13.2857V15V15.25H27.9978H3.99994H3.74994V15V11.8214H3.51979L3.74994 11.4926V11.3214H3.86977L9.79459 2.85664L9.86924 2.75H9.99941H14.2847H14.7649L14.4896 3.14336L8.76541 11.3214H15.9989H21.9983H24.9981H27.9978Z" stroke="white" stroke-width="0.5"/>
<g filter="url(#filter1_i_1_2723)">
<path d="M4.00205 20.4286H27.9999V17H4.00205V20.4286Z" fill="#E5E5ED"/>
<path d="M17.7151 29L23.7146 20.4286H27.9999L22.0005 29H17.7151Z" fill="#E5E5ED"/>
</g>
<path d="M4.00205 20.6786H3.75205V20.4286V17V16.75H4.00205H27.9999H28.2499V17V20.1786H28.4801L28.2499 20.5074V20.6786H28.1301L22.2053 29.1434L22.1306 29.25H22.0005H17.7151H17.235L17.5103 28.8566L23.2345 20.6786H4.00205Z" stroke="white" stroke-width="0.5"/>
<defs>
<filter id="filter0_i_1_2723" x="3.49994" y="2.5" width="24.9979" height="15" filterUnits="userSpaceOnUse" color-interpolation-filters="sRGB">
<feFlood flood-opacity="0" result="BackgroundImageFix"/>
<feBlend mode="normal" in="SourceGraphic" in2="BackgroundImageFix" result="shape"/>
<feColorMatrix in="SourceAlpha" type="matrix" values="0 0 0 0 0 0 0 0 0 0 0 0 0 0 0 0 0 0 127 0" result="hardAlpha"/>
<feOffset dy="2"/>
<feGaussianBlur stdDeviation="2"/>
<feComposite in2="hardAlpha" operator="arithmetic" k2="-1" k3="1"/>
<feColorMatrix type="matrix" values="0 0 0 0 0 0 0 0 0 0 0 0 0 0 0 0 0 0 0.04 0"/>
<feBlend mode="normal" in2="shape" result="effect1_innerShadow_1_2723"/>
</filter>
<filter id="filter1_i_1_2723" x="3.50205" y="16.5" width="24.9979" height="15" filterUnits="userSpaceOnUse" color-interpolation-filters="sRGB">
<feFlood flood-opacity="0" result="BackgroundImageFix"/>
<feBlend mode="normal" in="SourceGraphic" in2="BackgroundImageFix" result="shape"/>
<feColorMatrix in="SourceAlpha" type="matrix" values="0 0 0 0 0 0 0 0 0 0 0 0 0 0 0 0 0 0 127 0" result="hardAlpha"/>
<feOffset dy="2"/>
<feGaussianBlur stdDeviation="2"/>
<feComposite in2="hardAlpha" operator="arithmetic" k2="-1" k3="1"/>
<feColorMatrix type="matrix" values="0 0 0 0 0 0 0 0 0 0 0 0 0 0 0 0 0 0 0.04 0"/>
<feBlend mode="normal" in2="shape" result="effect1_innerShadow_1_2723"/>
</filter>
</defs>
</svg>
