<svg width="24" height="24" viewBox="0 0 24 24" fill="none" xmlns="http://www.w3.org/2000/svg">
<path d="M14.4443 8.31534L15.7467 9.61771L9.54489 15.8195L8.24251 14.5171L14.4443 8.31534Z" fill="#373C45"/>
<path d="M13.8605 16.3413L13.2404 16.9614C11.5278 18.674 8.75114 18.674 7.03857 16.9614C5.32599 15.2489 5.32599 12.4722 7.03857 10.7596L7.65875 10.1395L6.41839 8.8991L5.79821 9.51928C3.4006 11.9169 3.4006 15.8042 5.79821 18.2018C8.19582 20.5994 12.0831 20.5994 14.4807 18.2018L15.1009 17.5816L13.8605 16.3413Z" fill="#373C45"/>
<path d="M16.3413 13.8605L17.5816 15.1009L18.2018 14.4807C20.5994 12.0831 20.5994 8.19582 18.2018 5.79821C15.8042 3.4006 11.9169 3.4006 9.51928 5.79821L8.8991 6.41839L10.1395 7.65874L10.7596 7.03857C12.4722 5.32599 15.2489 5.32599 16.9614 7.03857C18.674 8.75114 18.674 11.5278 16.9614 13.2404L16.3413 13.8605Z" fill="#373C45"/>
</svg>
