<svg width="24" height="24" viewBox="0 0 24 24" fill="none" xmlns="http://www.w3.org/2000/svg">
<path fill-rule="evenodd" clip-rule="evenodd" d="M9.74388 15.2769C12.9161 15.2769 15.4878 12.7525 15.4878 9.63846C15.4878 6.52443 12.9161 4 9.74388 4C6.57162 4 4 6.52443 4 9.63846C4 12.7525 6.57162 15.2769 9.74388 15.2769ZM9.74388 13.3974C11.8587 13.3974 13.5731 11.7145 13.5731 9.63846C13.5731 7.56244 11.8587 5.87949 9.74388 5.87949C7.62904 5.87949 5.91463 7.56244 5.91463 9.63846C5.91463 11.7145 7.62904 13.3974 9.74388 13.3974Z" fill="#373C45"/>
<path d="M12.3355 14.062L13.9697 12.4578L19 17.3958L17.3658 19L12.3355 14.062Z" fill="#373C45"/>
</svg>
