<svg width="24" height="24" viewBox="0 0 24 24" fill="none" xmlns="http://www.w3.org/2000/svg">
<path d="M19 12.0087C19 14.1929 18.1045 16.1704 16.6568 17.6017L18.071 19C19.8807 17.2108 21 14.739 21 12.0087C21 9.26958 19.8734 6.79058 18.0533 5L16.6391 6.39826C18.0972 7.83099 19 9.81563 19 12.0087Z" fill="#373C45"/>
<path d="M11 6.07646L7 9.0426H3V14.9749H7L11 17.941V6.07646Z" fill="#373C45"/>
<path d="M15.2603 16.186L13.8461 14.7877C14.5596 14.0735 15 13.092 15 12.0088C15 10.9078 14.545 9.91186 13.8107 9.19484L15.2249 7.79657C16.3211 8.87145 17 10.3617 17 12.0088C17 13.638 16.3357 15.1139 15.2603 16.186Z" fill="#373C45"/>
</svg>
